<?xml version="1.0" standalone="no"?><!DOCTYPE svg PUBLIC "-//W3C//DTD SVG 1.1//EN" "http://www.w3.org/Graphics/SVG/1.1/DTD/svg11.dtd"><svg t="1558119614825" class="icon" style="" viewBox="0 0 1024 1024" version="1.1" xmlns="http://www.w3.org/2000/svg" p-id="6866" xmlns:xlink="http://www.w3.org/1999/xlink" width="200" height="200"><defs><style type="text/css"></style></defs><path d="M487.03464 170.946144z m26.970512 58.162496c-218.449425 0-395.540155 177.935024-395.540155 397.439817s177.079004 397.451543 395.540155 397.451543 395.528428-177.946751 395.528428-397.439817-177.09073-397.451543-395.528428-397.451543z m203.381117 362.002909l-77.991687 76.385182 18.410307 107.882049c6.179765 36.199118-14.399908 52.041363-47.397744 34.604341l-96.401993-50.950816-96.401992 50.927363c-32.364615 17.09696-53.706499 2.345262-47.397745-34.60434l18.410307-107.88205-77.991686-76.385182c-26.18485-25.645439-18.762096-50.610753 18.105422-55.993129l107.776513-15.748434 48.183407-98.102307c16.182307-32.95093 42.085726-33.595877 58.631548 0l48.20686 98.12576 107.75306 15.748434c36.175666 5.276839 44.794503 29.843458 18.105423 55.993129z m188.91085-546.446035a27.756175 27.756175 0 0 0 5.710713-16.252665A28.319038 28.319038 0 0 0 883.747425 0.023453H639.183509c-13.192098 0-23.780956 9.287237-26.888429 21.57641l-75.388445 149.346281s161.42438 9.75629 256.806184 102.018895zM487.03464 170.946144L411.693099 21.57641C408.585627 9.287237 398.008496 0 384.816397 0H140.252481A28.319038 28.319038 0 0 0 112.003801 28.389396a27.826533 27.826533 0 0 0 5.652081 16.264392l112.572574 228.311251c95.416983-92.250879 256.806184-102.018895 256.806184-102.018895z" p-id="6867"></path></svg>