<?xml version="1.0" standalone="no"?><!DOCTYPE svg PUBLIC "-//W3C//DTD SVG 1.1//EN" "http://www.w3.org/Graphics/SVG/1.1/DTD/svg11.dtd"><svg t="1558120375628" class="icon" style="" viewBox="0 0 1024 1024" version="1.1" xmlns="http://www.w3.org/2000/svg" p-id="9423" xmlns:xlink="http://www.w3.org/1999/xlink" width="200" height="200"><defs><style type="text/css"></style></defs><path d="M256.04999 840.935755v-73.085726c0-140.772505 115.177504-255.95001 255.95001-255.950009s255.95001 115.177504 255.95001 255.950009v73.085726" fill="#B3DBFF" p-id="9424"></path><path d="M804.542863 840.935755h-73.085726v-73.085726c0-120.976372-98.380785-219.357157-219.357157-219.357157s-219.357157 98.380785-219.357156 219.357157v73.085726h-73.085726v-73.085726c0-161.268502 131.27436-292.542863 292.542863-292.542862s292.542863 131.27436 292.542863 292.542862v73.085726z" fill="#0E80FD" p-id="9425"></path><path d="M767.95001 182.764304v73.085725c0 140.772505-115.177504 255.95001-255.95001 255.95001s-255.95001-115.177504-255.95001-255.95001v-73.085725" fill="#B3DBFF" p-id="9426"></path><path d="M512 548.392892c-161.268502 0-292.542863-131.27436-292.542863-292.542863v-73.085725h73.085726v73.085725c0 120.976372 98.380785 219.357157 219.357157 219.357157s219.357157-98.380785 219.357156-219.357157v-73.085725h73.085726v73.085725c0.199961 161.368483-131.0744 292.542863-292.342902 292.542863z" fill="#0E80FD" p-id="9427"></path><path d="M182.964265 36.492872h658.171451v146.271432H182.964265z" fill="#FFFFFF" p-id="9428"></path><path d="M804.542863 73.085725V146.171451H219.457137V73.085725h585.085726M841.035735 0H182.964265c-20.196055 0-36.592853 16.396798-36.592853 36.592853v146.271431c0 20.196055 16.396798 36.592853 36.592853 36.592853h658.171451c20.196055 0 36.592853-16.396798 36.592853-36.592853V36.492872c-0.09998-20.096075-16.496778-36.492872-36.692834-36.492872z" fill="#0E80FD" p-id="9429"></path><path d="M182.964265 840.935755h658.171451v146.271431H182.964265z" fill="#FFFFFF" p-id="9430"></path><path d="M804.542863 877.528608v73.085725H219.457137v-73.085725h585.085726m36.492872-73.185706H182.964265c-20.196055 0-36.592853 16.396798-36.592853 36.592853v146.271431c0 20.196055 16.396798 36.592853 36.592853 36.592853h658.171451c20.196055 0 36.592853-16.396798 36.592853-36.592853V840.935755c-0.09998-20.196055-16.496778-36.592853-36.692834-36.592853z" fill="#0E80FD" p-id="9431"></path></svg>