<?xml version="1.0" standalone="no"?><!DOCTYPE svg PUBLIC "-//W3C//DTD SVG 1.1//EN" "http://www.w3.org/Graphics/SVG/1.1/DTD/svg11.dtd"><svg t="1558120247565" class="icon" style="" viewBox="0 0 1265 1024" version="1.1" xmlns="http://www.w3.org/2000/svg" p-id="9291" xmlns:xlink="http://www.w3.org/1999/xlink" width="247.0703125" height="200"><defs><style type="text/css"></style></defs><path d="M374.894 536.327c0 0.004 0 0.018 0 0.023 0 183.665 148.891 332.559 332.559 332.559 183.665 0 332.559-148.891 332.559-332.559 0-0.005 0-0.019 0-0.023 0-0.003 0-0.017 0-0.022 0-183.665-148.891-332.559-332.559-332.559-183.665 0-332.559 148.891-332.559 332.559 0 0.005 0 0.019 0 0.023z" fill="#f1cdc8" p-id="9292"></path><path d="M496.886 536.327c0 116.292 94.271 210.564 210.564 210.564s210.564-94.271 210.564-210.564c0 0 0 0 0 0 0-116.292-94.271-210.564-210.564-210.564-116.292 0-210.564 94.271-210.564 210.564 0 0 0 0 0 0z" fill="#FF0000" p-id="9293"></path></svg>