<?xml version="1.0" standalone="no"?><!DOCTYPE svg PUBLIC "-//W3C//DTD SVG 1.1//EN" "http://www.w3.org/Graphics/SVG/1.1/DTD/svg11.dtd"><svg t="1558120116818" class="icon" style="" viewBox="0 0 1024 1024" version="1.1" xmlns="http://www.w3.org/2000/svg" p-id="9160" xmlns:xlink="http://www.w3.org/1999/xlink" width="200" height="200"><defs><style type="text/css"></style></defs><path d="M512 1024C229.216 1024 0 794.784 0 512S229.216 0 512 0s512 229.216 512 512-229.216 512-512 512z m220.224-666.944l-296.384 292.288-123.904-116.8a21.472 21.472 0 0 0-30.72 0 22.272 22.272 0 0 0 0 31.2l139.584 132.736a21.472 21.472 0 0 0 33.28-3.136l308.896-305.088a22.304 22.304 0 0 0 0-31.2 21.504 21.504 0 0 0-30.72 0z" fill="#3BC49D" p-id="9161"></path></svg>