<?xml version="1.0" standalone="no"?><!DOCTYPE svg PUBLIC "-//W3C//DTD SVG 1.1//EN" "http://www.w3.org/Graphics/SVG/1.1/DTD/svg11.dtd"><svg t="1558119667896" class="icon" style="" viewBox="0 0 1024 1024" version="1.1" xmlns="http://www.w3.org/2000/svg" p-id="8390" xmlns:xlink="http://www.w3.org/1999/xlink" width="200" height="200"><defs><style type="text/css"></style></defs><path d="M824 0.8H200C89.6 0.8 0 89.6 0 200v624c0 110.4 89.6 200 200 200h624c110.4 0 200-89.6 200-200V200C1023.2 89.6 934.4 0.8 824 0.8z m-460.8 872s-40.8-45.6-79.2-83.2c-40.8-11.2-82.4-21.6-123.2-31.2l84-145.6c44.8 57.6 122.4 107.2 196 125.6l-77.6 134.4zM240 431.2c0-147.2 125.6-280 272-280S784 277.6 784 424c0 147.2-125.6 272.8-272 272.8S240 577.6 240 431.2z m507.2 352c-38.4 37.6-86.4 90.4-86.4 90.4l-77.6-134.4C656.8 721.6 728 672 772 613.6l91.2 145.6s-61.6 8-116 24zM652 360.8L590.4 352c-10.4-0.8-19.2-7.2-23.2-16l-28-59.2c-4.8-10.4-16-17.6-27.2-17.6-12 0-22.4 7.2-27.2 17.6L456.8 336c-4 8.8-12.8 14.4-22.4 15.2l-61.6 9.6c-16.8 2.4-28 17.6-25.6 34.4 0.8 6.4 4 12 8 16.8l48.8 49.6c5.6 5.6 8 14.4 7.2 22.4L400 553.6c-2.4 16.8 8.8 32 25.6 35.2 6.4 0.8 13.6 0 19.2-3.2l53.6-28.8c8.8-5.6 19.2-5.6 28-0.8l54.4 29.6c15.2 8 33.6 2.4 41.6-12 3.2-5.6 4-12.8 3.2-19.2l-10.4-67.2v-0.8c-1.6-8.8 0.8-18.4 7.2-24.8l47.2-48.8c12-12 11.2-31.2-0.8-43.2-4.8-4.8-10.4-8-16.8-8.8z" fill="#D81E06" p-id="8391"></path></svg>